<svg width="997.0000000000001" height="366" xmlns="http://www.w3.org/2000/svg">

 <g>
  <title>background</title>
  <rect fill="#f0f0f5" id="canvas_background" height="368" width="999" y="-1" x="-1"/>
 </g>
 <g>
  <title>Layer 1</title>
  <path stroke="null" fill="#00bfa6" id="svg_3" d="m182.124638,239.934784l-108,0c19.5,28.2 51.8,59.7 104.5,93.8c21.5,13.9 46,20.8 70.6,20.8c2.3,0 4.7,-0.1 7,-0.2l-54.3,-154.4l-19.8,40z" class="st0"/>
  <path stroke="null" fill="#00bfa6" id="svg_4" d="m312.524638,233.434784l-54,120.8c21.3,-1.5 42.4,-8.4 61.1,-20.5c44.3,-28.7 73.9,-55.5 93.6,-80.2l-90.6,0l-10.1,-20.1z" class="st0"/>
  <polygon stroke="null" fill="#0b7c6d" id="svg_6" points="355.2246379852295,200.93478393554688 309.8246440887451,110.33477783203125 262.92465019226074,215.23477172851562 209.82464408874512,64.13478088378906 149.32464408874512,187.33477783203125 16.124637603759766,187.33477783203125 16.124637603759766,225.93478393554688 173.42463493347168,225.93478393554688 203.92463493347168,163.83477783203125 258.7246379852295,319.5347900390625 311.8246440887451,200.63479614257812 331.3246440887451,239.5347900390625 479.3246440887451,239.5347900390625 479.3246440887451,200.93478393554688 " class="st1"/>
  <path stroke="null" fill="#00bfa6" id="svg_7" d="m140.724638,173.334784l71.3,-145.3l52.6,149.5l44.6,-99.9l54.7,109.4l83.5,0c3,-12.8 3.8,-24.3 3.8,-34.5c0,-3.6 -0.2,-7.2 -0.5,-10.8c-0.2,0 -0.5,0 -0.7,0l-49.3,0.4c0,0 0,0 -0.1,0c-3.8,0 -7,-3.1 -7,-6.9c0,-3.9 3.1,-7 6.9,-7.1l48.2,-0.4c-11.6,-59.9 -64.3,-105.2 -127.6,-105.2c-26.5,0 -51.1,7.9 -71.6,21.5c-21.1,-14.9 -46.9,-23.7 -74.8,-23.7c-71.8,0 -130,58.2 -130,130c0,7 0.4,14.7 1.6,23l94.4,0zm227.6,-39.8c0.1,-0.4 0.2,-0.9 0.4,-1.3c0.2,-0.4 0.4,-0.8 0.6,-1.2c0.3,-0.4 0.5,-0.7 0.9,-1.1c0.3,-0.3 0.7,-0.6 1.1,-0.9c0.4,-0.3 0.8,-0.5 1.2,-0.6c0.4,-0.2 0.9,-0.3 1.3,-0.4c0.9,-0.2 1.8,-0.2 2.7,0c0.4,0.1 0.9,0.2 1.3,0.4c0.4,0.2 0.8,0.4 1.2,0.6c0.4,0.3 0.7,0.6 1.1,0.9c1.3,1.3 2,3.1 2,4.9c0,0.5 0,0.9 -0.1,1.4c-0.1,0.4 -0.2,0.9 -0.4,1.3c-0.2,0.4 -0.4,0.8 -0.6,1.2c-0.3,0.4 -0.5,0.7 -0.9,1.1c-0.3,0.3 -0.7,0.6 -1.1,0.9c-0.4,0.3 -0.8,0.5 -1.2,0.6c-0.4,0.2 -0.9,0.3 -1.3,0.4c-0.5,0.1 -0.9,0.1 -1.4,0.1c-0.5,0 -0.9,0 -1.4,-0.1c-0.4,-0.1 -0.9,-0.2 -1.3,-0.4c-0.4,-0.2 -0.8,-0.4 -1.2,-0.6c-0.4,-0.3 -0.7,-0.5 -1.1,-0.9c-0.3,-0.3 -0.6,-0.7 -0.9,-1.1c-0.3,-0.4 -0.5,-0.8 -0.6,-1.2c-0.2,-0.4 -0.3,-0.9 -0.4,-1.3c-0.1,-0.5 -0.1,-0.9 -0.1,-1.4c0,-0.4 0.1,-0.9 0.2,-1.3z" class="st0"/>
  <text stroke="null" transform="matrix(5.800854672397689,0,0,6.044879919816137,-2568.703924578164,-790.0501841813034) " font-weight="bold" xml:space="preserve" text-anchor="start" font-family="'Trebuchet MS', Gadget, sans-serif" font-size="24" id="svg_8" y="170.499586" x="536.302875" stroke-opacity="null" stroke-width="0" fill="#322153">eClinic</text>
 </g>
</svg>